<?xml version="1.0" encoding="UTF-8"?>
<svg width="63px" height="17px" viewBox="0 0 63 17" version="1.1" xmlns="http://www.w3.org/2000/svg" xmlns:xlink="http://www.w3.org/1999/xlink">
    <title>Group 3</title>
    <g id="Page-1" stroke="none" stroke-width="1" fill="none" fill-rule="evenodd">
        <g id="Artboard" transform="translate(-125.000000, -144.000000)" fill="#FFFFFF" fill-rule="nonzero">
            <g id="Group-3" transform="translate(125.000000, 144.000000)">
                <polygon id="Path" points="18 12.4849374 18 17 0 17 0 0 5.06109631 0 5.06109631 12.4849374"></polygon>
                <path d="M62.9906686,0 L56.0689589,0 L50.840573,5.26526864 L45.6400704,0 L33.536521,0 L33.536521,8.35534903 C33.536521,10.3904162 32.9038713,12.5470267 28.3545702,12.5470267 C23.8052691,12.5470267 23.1726194,10.4184561 23.1726194,8.35534903 L23.1726194,0 L18,0 L18,8.35534903 C18,14.1993668 21.1072598,17 28.3639016,17 C35.5925492,17 38.7276922,14.1713269 38.7276922,8.35534903 L38.7276922,0.326747989 C38.7276922,0.21472266 38.857888,0.158709996 38.9416489,0.233389825 L47.2495223,8.37400502 L38.6998089,16.7479765 L45.6492908,16.7479765 L50.8499045,11.4827414 L56.0782903,16.7479765 L63,16.7479765 L54.4781699,8.37400502 L62.9906686,0 Z" id="Path"></path>
            </g>
        </g>
    </g>
</svg>